<svg width="48" height="48" viewBox="0 0 48 48" fill="none" xmlns="http://www.w3.org/2000/svg">
<circle cx="24" cy="24" r="24" fill="#1A1B1E"/>
<g clip-path="url(#clip0_10_6)">
<path d="M39.7723 14.7238L24.7988 41.499C24.4896 42.0518 23.6953 42.055 23.3815 41.5049L8.1112 14.7263C7.76928 14.1269 8.28191 13.4007 8.96125 13.5222L23.9508 16.2014C24.0465 16.2185 24.1444 16.2183 24.2399 16.2009L38.916 13.526C39.5931 13.4026 40.1081 14.1231 39.7723 14.7238V14.7238Z" fill="url(#paint0_linear_10_6)"/>
<path d="M31.0911 10.0078L20.0104 12.1791C19.9218 12.1965 19.8416 12.2427 19.7822 12.3107C19.7228 12.3786 19.6877 12.4643 19.6824 12.5544L19.0008 24.0664C18.9971 24.1296 19.0081 24.1927 19.033 24.2508C19.0579 24.309 19.096 24.3605 19.1443 24.4013C19.1927 24.4422 19.2498 24.4712 19.3113 24.486C19.3728 24.5009 19.4369 24.5013 19.4985 24.487L22.5836 23.7751C22.8722 23.7084 23.133 23.9627 23.0736 24.2529L22.1571 28.7413C22.0955 29.0434 22.379 29.3016 22.674 29.212L24.5795 28.6331C24.8749 28.5434 25.1588 28.8024 25.0962 29.1047L23.6397 36.1548C23.5485 36.5959 24.1351 36.8363 24.3797 36.4583L24.5432 36.2058L33.5724 18.1861C33.7237 17.8844 33.4628 17.5404 33.1316 17.6044L29.9559 18.2173C29.6576 18.2748 29.4037 17.9969 29.4878 17.705L31.5605 10.52C31.6448 10.2274 31.3899 9.94932 31.0912 10.0078H31.0911Z" fill="url(#paint1_linear_10_6)"/>
</g>
<defs>
<linearGradient id="paint0_linear_10_6" x1="7.73836" y1="15.6825" x2="23.8872" y2="37.614" gradientUnits="userSpaceOnUse">
<stop stop-color="#41D1FF"/>
<stop offset="1" stop-color="#BD34FE"/>
</linearGradient>
<linearGradient id="paint1_linear_10_6" x1="25.3401" y1="10.5974" x2="28.6622" y2="33.3864" gradientUnits="userSpaceOnUse">
<stop stop-color="#FFEA83"/>
<stop offset="0.08333" stop-color="#FFDD35"/>
<stop offset="1" stop-color="#FFA800"/>
</linearGradient>
<clipPath id="clip0_10_6">
<rect width="31.88" height="32" fill="white" transform="translate(8 10)"/>
</clipPath>
</defs>
</svg>
